<svg width="117" height="117" xmlns="http://www.w3.org/2000/svg">

 <g>
  <title>Layer 1</title>
  <path stroke="#f9e102" id="svg_2" d="m117,58.49329l-23.6048,8.39707l0,-16.78519l23.6048,8.38812zm-17.13908,-41.36382l-10.75384,22.63362l-11.86723,-11.87572l22.62108,-10.7579zm-41.36093,-17.12948l8.39292,23.60836l-16.7903,0l8.39739,-23.60836zm-41.3654,17.12948l22.63002,10.7579l-11.87171,11.87572l-10.75831,-22.63362zm-17.1346,41.36382l23.60927,-8.38812l0,16.78519l-23.60927,-8.39707zm17.1346,41.36382l10.75831,-22.62468l11.87171,11.87125l-22.63002,10.75343l0,0zm41.3654,17.14289l-8.39739,-23.61283l16.7903,0l-8.39292,23.61283zm41.36093,-17.14289l-22.62555,-10.74896l11.86723,-11.87125l10.75831,22.62021zm-70.6087,-41.36382l0,0c0,-16.15027 13.09688,-29.24665 29.25224,-29.24665c16.15088,0 29.25224,13.09638 29.25224,29.24665c0,16.15474 -13.10135,29.25112 -29.25224,29.25112c-16.15983,0 -29.25224,-13.09638 -29.25224,-29.25112l0,0z" fill="#f4f407"/>
 </g>
</svg>